<?xml version="1.0" encoding="UTF-8"?><svg id="Layer_2" xmlns="http://www.w3.org/2000/svg" viewBox="0 0 351 306"><defs><style>.cls-1{fill:#fff;}.cls-2{fill:none;stroke:#fff;stroke-miterlimit:10;stroke-width:20px;}</style></defs><g id="Layer_1-2"><path class="cls-1" d="m180.07,267.25V38.92s137.5,0,137.5,0v39.89s-100.81,0-100.81,0v48.83s55.11,0,55.11,0v40.23s-55.11,0-55.11,0v58.8s100.29,0,100.29,0v40.58s-136.99,0-136.99,0Z"/><path class="cls-1" d="m134.6,267.25l-.36-99.38h-55.11s0-40.23,0-40.23h55.11s0-48.83,0-48.83H33.43s0-39.89,0-39.89h137.5s0,228.32,0,228.32h-36.33Z"/><rect class="cls-2" x="10" y="10" width="331" height="286"/></g></svg>